<?xml version="1.0" standalone="no"?>
<!DOCTYPE svg PUBLIC "-//W3C//DTD SVG 1.1//EN" "http://www.w3.org/Graphics/SVG/1.1/DTD/svg11.dtd">
<svg viewBox="0 0 1024 1024" version="1.1" xmlns="http://www.w3.org/2000/svg" p-id="10674" xmlns:xlink="http://www.w3.org/1999/xlink" width="200" height="200">
    <path d="M812.544 101.888H212.48c-22.528 0-40.96 18.432-40.96 40.96v740.352c0 22.528 18.432 40.96 40.96 40.96h236.032c12.288 0 22.528-9.728 22.528-22.528v-88.576c0-86.016 68.096-209.92 231.424-209.92h46.592c22.016 0 43.52-6.656 61.44-18.944l5.12-3.584c24.064-16.384 38.4-43.52 38.4-72.704V142.848c-0.512-23.04-19.456-40.96-41.472-40.96zM443.904 640H329.728c-13.824 0-26.624-9.216-30.208-23.04-4.608-19.456 10.24-36.352 28.672-36.352h114.176c13.824 0 26.624 9.216 30.208 23.04 4.608 18.944-10.24 36.352-28.672 36.352zM542.72 492.032H329.216c-13.824 0-26.624-9.216-30.208-23.04-4.608-19.456 10.24-36.352 28.672-36.352h213.504c13.824 0 26.624 9.216 30.208 23.04 4.608 18.944-9.728 36.352-28.672 36.352z m126.464-144.384H329.216c-13.824 0-26.624-9.216-30.208-23.04-4.608-19.456 10.24-36.352 28.672-36.352h339.968c13.824 0 26.624 9.216 30.208 23.04 4.608 18.944-10.24 36.352-28.672 36.352z" fill="#1e2858"></path>
    <path d="M665.6 934.912c-8.192 0-16.384-3.072-23.04-9.728l-119.296-122.368c-12.288-12.8-12.288-32.768 0.512-45.056 12.8-12.288 32.768-12.288 45.056 0.512l96.768 99.328 193.536-188.416c12.8-12.288 32.768-12.288 45.056 0.512 12.288 12.8 12.288 32.768-0.512 45.056l-216.064 210.944c-6.144 6.144-14.336 9.216-22.016 9.216z" fill="#1e2858"></path>
</svg>