<?xml version="1.0" standalone="no"?><!DOCTYPE svg PUBLIC "-//W3C//DTD SVG 1.1//EN" "http://www.w3.org/Graphics/SVG/1.1/DTD/svg11.dtd">
<svg viewBox="0 0 1024 1024" version="1.1"
    xmlns="http://www.w3.org/2000/svg" p-id="8452"
    xmlns:xlink="http://www.w3.org/1999/xlink" width="200" height="200">
    <path d="M511.256287 2.552647C229.14839 2.552647 0.531589 231.230786 0.531589 513.276324c0 282.044515 228.616802 510.724699 510.724699 510.724699s510.723676-228.676094 510.723676-510.724699C1021.979964 231.230786 793.364184 2.552647 511.256287 2.552647zM562.628185 606.417789 562.628185 481.980071c-61.783876 0-219.138169 1.434267-219.138169 170.760547 0 88.657721 60.097105 162.625198 140.026551 179.738259-128.368406-18.20384-227.620073-132.138596-227.620073-271.478171 0-258.82432 264.154517-261.00281 306.733736-261.00281L562.630229 194.07377l203.989941 206.951502L562.628185 606.417789z" fill="#1e2858"></path>
</svg>