<?xml version="1.0" standalone="no"?>
<!DOCTYPE svg PUBLIC "-//W3C//DTD SVG 1.1//EN" "http://www.w3.org/Graphics/SVG/1.1/DTD/svg11.dtd">
<svg viewBox="0 0 1025 1024" version="1.1" xmlns="http://www.w3.org/2000/svg" p-id="4497" xmlns:xlink="http://www.w3.org/1999/xlink" width="200.1953125" height="200">
    <path d="M779 1024h-184v-196.4c0-14.4-11.6-26-26-26h-93.2c-14.4 0-26 11.8-26 26V1024h-198.8c-54.8 0-99.4-44.6-99.4-99.4V600.2l-112.2-35-9-9c-26.6-26.6-26.6-69.6 0-96.2L470 20.4c12.8-12.8 29.8-20 48-20s35.2 7 48 20l439.6 439.8c12.8 12.8 20 30 19.8 48 0 18.2-7.2 35.2-20 48l-9 9-118.4 35.2v324.2c0.2 54.8-44.2 99.4-99 99.4z" fill="#1e2f56"></path>
</svg>