<?xml version="1.0" standalone="no"?>
<!DOCTYPE svg PUBLIC "-//W3C//DTD SVG 1.1//EN" "http://www.w3.org/Graphics/SVG/1.1/DTD/svg11.dtd">
<svg viewBox="0 0 1024 1024" version="1.1" xmlns="http://www.w3.org/2000/svg" p-id="2803" xmlns:xlink="http://www.w3.org/1999/xlink" width="200" height="200">
    <path d="M960 192H537.6c-17.066667 0-34.133333-6.4-44.8-19.2l-68.266667-68.266667c-12.8-12.8-27.733333-19.2-44.8-19.2H64C27.733333 85.333333 0 113.066667 0 149.333333v725.333334c0 36.266667 27.733333 64 64 64h896c36.266667 0 64-27.733333 64-64V256c0-36.266667-27.733333-64-64-64zM718.933333 582.4l-179.2 192c-8.533333 8.533333-19.2 12.8-32 12.8-10.666667 0-23.466667-4.266667-32-12.8l-179.2-192c-25.6-27.733333-6.4-70.4 32-70.4H426.666667v-128c0-23.466667 19.2-42.666667 42.666666-42.666667h85.333334c23.466667 0 42.666667 19.2 42.666666 42.666667v128h89.6c38.4 0 57.6 44.8 32 70.4z" fill="#1e2858"></path>
</svg>