<!-- 
59.372539 = 63 的算术平方根减二乘以10，具体参看原始设计图。
-->
<svg id="jiaopengzi-logo-svg" width="550" height="1054" viewBox="0 0 550 1054" version="1.1" xmlns="http://www.w3.org/2000/svg" xmlns:xlink="http://www.w3.org/1999/xlink">


    <style>
        .cls-text {
            fill: #1e2f56;
        <!-- fill: #c19220; -->
        stroke:none;
        }
        .cls-text-p {
            fill: none;
        }
    </style>

    <!-- 文字：焦 -->
    <symbol id="jiao" preserveAspectRatio="xMinYMin meet" viewBox="0 0 29.88 30.79">
        <path class="cls-text" d="M2688.12,3386v16.17a3.23,3.23,0,0,1-3.23-3.24v-9.69l-1.34,1.33a3.15,3.15,0,0,1-.84-1.45s0,0,0-.07a3.19,3.19,0,0,1,.85-3.05l2.29-2.29,2.28-2.28a3.1,3.1,0,0,1,.84,1.45A3.22,3.22,0,0,1,2688.12,3386Z" transform="translate(-2682.6 -3379.48)" />
        <path class="cls-text" d="M2704.49,3382.73a3.27,3.27,0,0,1-1.45.83,3.23,3.23,0,0,1-3.12-.83l-2.29-2.29a3.15,3.15,0,0,1,1.45-.84,3.21,3.21,0,0,1,3.12.84Z" transform="translate(-2682.6 -3379.48)" />
        <path class="cls-text" d="M2702.68,3392.43V3394h6.46a3.2,3.2,0,0,1,2.74,1.53l.06.09a3.2,3.2,0,0,1,.44,1.62h-9.7v1.61h6.46a3.22,3.22,0,0,1,2.74,1.53l.06.09a3.2,3.2,0,0,1,.44,1.62h-22.64a3.29,3.29,0,0,1,.43-1.62l.06-.09a3.25,3.25,0,0,1,2.74-1.53h6.47v-1.61h-9.7a3.29,3.29,0,0,1,.43-1.62l.06-.09A3.23,3.23,0,0,1,2693,3394h6.47v-1.61h-9.7a3.29,3.29,0,0,1,.43-1.62l.06-.09a3.23,3.23,0,0,1,2.74-1.53h6.47v-1.61h-9.6a3.29,3.29,0,0,1,.43-1.62l.06-.09a3.23,3.23,0,0,1,2.74-1.53h16.17a3.2,3.2,0,0,1,2.74,1.53l.06.09a3.2,3.2,0,0,1,.44,1.62h-9.8v1.61h6.46a3.2,3.2,0,0,1,2.74,1.53l.06.09a3.2,3.2,0,0,1,.44,1.62Z" transform="translate(-2682.6 -3379.48)" />
        <path class="cls-text" d="M2688.11,3407v3.24a3.25,3.25,0,0,1-3.24-3.24v-3.23a3.29,3.29,0,0,1,1.62.43A3.24,3.24,0,0,1,2688.11,3407Z" transform="translate(-2682.6 -3379.48)" />
        <path class="cls-text" d="M2696.16,3407v3.24a3.2,3.2,0,0,1-1.62-.44,3.24,3.24,0,0,1-1.61-2.8v-3.23a3.23,3.23,0,0,1,3.23,3.23Z" transform="translate(-2682.6 -3379.48)" />
        <path class="cls-text" d="M2704.21,3407v3.24a3.13,3.13,0,0,1-1.61-.44,3.22,3.22,0,0,1-1.62-2.8v-3.23a3.29,3.29,0,0,1,1.62.43A3.25,3.25,0,0,1,2704.21,3407Z" transform="translate(-2682.6 -3379.48)" />
        <path class="cls-text" d="M2712.38,3407v3.24a3.2,3.2,0,0,1-1.62-.44,3.24,3.24,0,0,1-1.61-2.8v-3.23a3.23,3.23,0,0,1,3.23,3.23Z" transform="translate(-2682.6 -3379.48)" />
    </symbol>
    <!-- 文字：棚 -->
    <symbol id="peng" preserveAspectRatio="xMinYMin meet" viewBox="0 0 32.3 29.16">
        <path class="cls-text" d="M2726,3389.34v14.75a3.51,3.51,0,0,1-1.21,2.8,2,2,0,0,1-1.21.43v-14.74a3.57,3.57,0,0,1,1.14-2.75l.07-.06A2,2,0,0,1,2726,3389.34Z" transform="translate(-2723.6 -3381.12)" />
        <path class="cls-text" d="M2733.3,3384.56a4.16,4.16,0,0,1-.32,1.61,2.41,2.41,0,0,1-2.1,1.62h-1.23V3407h0a3.57,3.57,0,0,1-1.13,2.74l-.07.06a2,2,0,0,1-1.21.44V3407h0v-19.25h-3.62a4,4,0,0,1,.32-1.62,2.4,2.4,0,0,1,2.09-1.61h1.21v-3.44a1.92,1.92,0,0,1,1.21.43l.07.06a3.58,3.58,0,0,1,1.14,2.74h0v.21Z" transform="translate(-2723.6 -3381.12)" />
        <path class="cls-text" d="M2733.3,3392.55v7.89a2,2,0,0,1-1.21-.43l-.07-.06a3.56,3.56,0,0,1-1.14-2.74v-7.87a2,2,0,0,1,1.2.42h0l.07.06s0,0,0,0A3.58,3.58,0,0,1,2733.3,3392.55Z" transform="translate(-2723.6 -3381.12)" />
        <path class="cls-text" d="M2744.6,3403.75v-17.64a4,4,0,0,0-.32-1.62,2.4,2.4,0,0,0-2.1-1.62h-4.85a2.39,2.39,0,0,0-2.08,1.62,4,4,0,0,0-.33,1.62v24.11a2,2,0,0,0,1.21-.43l.07-.06a3.6,3.6,0,0,0,1.14-2.74v-3.1h0v-3.45h4.83v3.45h0v6.33a2,2,0,0,0,1.21-.43l.07-.06a3.6,3.6,0,0,0,1.14-2.74v-3.24Zm-2.42-5.74h-4.83v-4.25h4.83Zm0-6.67h-4.83v-5.23h4.83Z" transform="translate(-2723.6 -3381.12)" />
        <path class="cls-text" d="M2755.58,3384.49a2.4,2.4,0,0,0-2.1-1.62h-4.85a2.39,2.39,0,0,0-2.09,1.62,4.22,4.22,0,0,0-.32,1.62v17.64h0v6.47a2,2,0,0,0,1.21-.43l.07-.06a3.56,3.56,0,0,0,1.14-2.74v-3.1h0v-3.45h4.84v9.78a2,2,0,0,0,1.21-.43l.07-.06a3.56,3.56,0,0,0,1.14-2.74v-20.88A4.22,4.22,0,0,0,2755.58,3384.49Zm-2.1,13.52h-4.84v-4.25h4.84Zm0-6.67h-4.84v-5.23h4.84Z" transform="translate(-2723.6 -3381.12)" />
    </symbol>
    <!-- 文字：子 -->
    <symbol id="zi" preserveAspectRatio="xMinYMin meet" viewBox="0 0 25.87 26.98">
        <path class="cls-text" d="M2792.69,3397.9h-11.52v12.47a3.29,3.29,0,0,1-1.62-.43l-.09-.06a3.23,3.23,0,0,1-1.53-2.74v-9.24h-11.11a3.19,3.19,0,0,1,.43-1.62l.06-.09a3.22,3.22,0,0,1,2.71-1.52h7.91v-.35a3.22,3.22,0,0,1,.93-1.93h0l5.71-5.72,0,0h-14.55a3.29,3.29,0,0,1,.43-1.62l.06-.09a3.2,3.2,0,0,1,2.7-1.53h11.32a3.21,3.21,0,0,1,2.74,1.53l-.05,0a1.3,1.3,0,0,1,.1.15,2.94,2.94,0,0,1,.33.8,3.15,3.15,0,0,1,.11.8,3.21,3.21,0,0,1-.94,2.32l-5.7,5.69,0,0h8.3a3.23,3.23,0,0,1,2.74,1.52l.06.09A3.2,3.2,0,0,1,2792.69,3397.9Z" transform="translate(-2766.82 -3383.39)" />
    </symbol>
    <!-- 文字：J -->
    <symbol id="j" preserveAspectRatio="xMidYMid meet" viewBox="0 0 210 340">
        <path class="cls-text" d="M -10 10 L -59.372539 10 A 80,80 1 0,0 20,100 A 130,130 1 0,0 150,-30 L 150 -240 L 20 -240 L 20 -160 L 70 -160 L 70 -30 A 50,50 1 0,1 -10,10 Z" transform="translate(60 240)"></path>
    </symbol>
    <!-- 文字：I -->
    <symbol id="i" preserveAspectRatio="xMinYMin meet" viewBox="0 0 1.98 8.31">
        <rect class="cls-text" width="1.98" height="8.31" />
    </symbol>
    <!-- 文字：A -->
    <symbol id="a" preserveAspectRatio="xMinYMin meet" viewBox="0 0 6.99 8.32">
        <path class="cls-text" d="M2707.81,3421.57l-1.37-5.28a1.68,1.68,0,0,0-1.16-1.19h-.06l0,0-.16,0-.22,0h-.08l-.22,0a.45.45,0,0,0-.16,0l-.11,0a1.68,1.68,0,0,0-1.16,1.18l-1.36,5.28-.44,1.7a1.92,1.92,0,0,0,.95,0,1.71,1.71,0,0,0,1.27-1.22l.25-1h2l.25,1a1.74,1.74,0,0,0,1.28,1.22,1.92,1.92,0,0,0,.95,0Zm-3.59-2.37.53-2.07.53,2.07Z" transform="translate(-2701.26 -3415.02)" />
    </symbol>
    <!-- 文字：O -->
    <symbol id="o" preserveAspectRatio="xMinYMin meet" viewBox="0 0 8.32 8.33">
        <path class="cls-text" d="M2716.54,3415a4.17,4.17,0,1,0,4.16,4.17A4.17,4.17,0,0,0,2716.54,3415Zm0,6.71a2.58,2.58,0,1,1,2.57-2.58A2.57,2.57,0,0,1,2716.51,3421.72Z" transform="translate(-2712.38 -3415.01)" />
    </symbol>
    <!-- 文字：P -->
    <symbol id="p" preserveAspectRatio="xMinYMin meet" viewBox="0 0 5.54 8.32">
        <path class="cls-text" d="M2608.34,3414.29h-2.77v8.32h2v-2.9a2.56,2.56,0,0,0,.79.12,2.77,2.77,0,1,0,0-5.54Zm0,3.6h-.84v-1.66h.84a.83.83,0,0,1,0,1.66Z" transform="translate(-2605.57 -3414.29)" />
    </symbol>
    <!-- 文字：E -->
    <symbol id="e" preserveAspectRatio="xMinYMin meet" viewBox="0 0 7.05 8.33">
        <polygon class="cls-text" points="1.85 1.85 1.85 3.24 7.05 3.24 7.05 5.09 1.85 5.09 1.85 6.48 7.05 6.48 7.05 8.33 0 8.33 0 0 7.05 0 7.05 1.85 1.85 1.85" />
    </symbol>
    <!-- 文字：N -->
    <symbol id="n" preserveAspectRatio="xMinYMin meet" viewBox="0 0 7.4 8.31">
        <polygon class="cls-text" points="7.4 0 7.4 8.31 5.58 8.31 5.55 8.28 1.85 3.71 1.85 8.31 0 8.31 0 0.01 1.84 0.01 1.85 0.02 5.55 4.59 5.55 0 7.4 0" />
    </symbol>
    <!-- 文字：G -->
    <symbol id="g" preserveAspectRatio="xMinYMin meet" viewBox="0 0 8.32 8.32">
        <path class="cls-text" d="M2648.86,3418.46a4.16,4.16,0,1,1-4.22-4.16,4.12,4.12,0,0,1,3.12,1.34l-1.44.81a2.58,2.58,0,1,0,.72,3h-2.21v-1.84h3.94A4.26,4.26,0,0,1,2648.86,3418.46Z" transform="translate(-2640.54 -3414.3)" />
    </symbol>
    <!-- 文字：Z -->
    <symbol id="z" preserveAspectRatio="xMinYMin meet" viewBox="0 0 7.05 8.33">
        <polygon class="cls-text" points="6.92 2.01 3.21 6.48 7.05 6.48 7.05 8.33 0 8.33 0 7.26 0.65 6.48 4.14 2.27 4.49 1.85 0 1.85 0 0 7.05 0 7.05 1.85 6.96 1.96 6.92 2.01" />
    </symbol>
    <!-- 中文和英文组合 -->
    <symbol id="logo-text" preserveAspectRatio="xMinYMin meet" viewBox="0 0 150 350">
        <use xlink:href="#jiao" x="0" y="0" height="100" />
        <use xlink:href="#peng" x="125" y="0" height="100" />
        <use xlink:href="#zi" x="265" y="10" height="90" />
        <use xlink:href="#j" x="-60" y="120" height="30" />
        <use xlink:href="#i" x="35" y="120" height="30" />
        <use xlink:href="#a" x="55" y="120" height="30" />
        <use xlink:href="#o" x="90" y="120" height="30" />
        <use xlink:href="#p" x="135" y="120" height="30" />
        <use xlink:href="#e" x="170" y="120" height="30" />
        <use xlink:href="#n" x="210" y="120" height="30" />
        <use xlink:href="#g" x="250" y="120" height="30" />
        <use xlink:href="#z" x="290" y="120" height="30" />
        <use xlink:href="#i" x="330" y="120" height="30" />
    </symbol>
    <!-- 背景矩形 -->
    <rect id="jiaopengzi-logo-svg-background" x="0" y="0" width="550" height="1054" fill="#c19220" stroke="#c19220" />
    <!-- 大字母logo -->
    <use xlink:href="#j" x="0" y="62" height="340" />
    <!-- 中文和英文组合调用 -->
    <use xlink:href="#logo-text" x="20" y="652" height="500" />


</svg>