<?xml version="1.0" standalone="no"?>
<!DOCTYPE svg PUBLIC "-//W3C//DTD SVG 1.1//EN" "http://www.w3.org/Graphics/SVG/1.1/DTD/svg11.dtd">
<svg viewBox="0 0 1024 1024" version="1.1" xmlns="http://www.w3.org/2000/svg" p-id="27943" xmlns:xlink="http://www.w3.org/1999/xlink" width="200" height="200">
    <path d="M896 0a128 128 0 0 1 128 128v365.205333a42.666667 42.666667 0 1 1-85.333333 0V341.333333H85.333333v554.666667a42.666667 42.666667 0 0 0 39.466667 42.56L128 938.666667h334.976a42.666667 42.666667 0 1 1 0 85.333333H128a128 128 0 0 1-128-128V128a128 128 0 0 1 128-128z m-117.269333 490.666667c89.834667 0 136.576 59.968 138.645333 151.125333A128 128 0 0 1 1024 768v128a128 128 0 0 1-128 128H682.666667a128 128 0 0 1-128-128v-128a128.042667 128.042667 0 0 1 85.333333-120.725333c1.002667-95.786667 46.805333-156.608 138.730667-156.608zM896 725.333333H682.666667a42.666667 42.666667 0 0 0-42.666667 42.666667v128a42.666667 42.666667 0 0 0 42.666667 42.666667h213.333333a42.666667 42.666667 0 0 0 42.666667-42.666667v-128a42.666667 42.666667 0 0 0-42.666667-42.666667z m-542.485333-42.666666a42.666667 42.666667 0 1 1 0 85.333333H213.333333a42.666667 42.666667 0 1 1 0-85.333333z m425.216-106.666667c-36.650667 0-51.349333 16.810667-53.205334 64H832c-1.493333-46.016-16.96-64-53.248-64zM533.333333 469.333333a42.666667 42.666667 0 1 1 0 85.333334H213.333333a42.666667 42.666667 0 1 1 0-85.333334zM896 85.333333H128a42.666667 42.666667 0 0 0-42.666667 42.666667v128h853.333334V128a42.666667 42.666667 0 0 0-39.466667-42.56L896 85.333333z" fill="#1e2f56"></path>
</svg>