<?xml version="1.0" standalone="no"?>
<!DOCTYPE svg PUBLIC "-//W3C//DTD SVG 1.1//EN" "http://www.w3.org/Graphics/SVG/1.1/DTD/svg11.dtd">
<svg viewBox="0 0 1024 1024" version="1.1" xmlns="http://www.w3.org/2000/svg" p-id="19271" xmlns:xlink="http://www.w3.org/1999/xlink" width="200" height="200">
    <path d="M0 0h1024v1024H0z" fill="#FFFFFF" fill-opacity=".01"></path>
    <path d="M549.302857 53.248c68.022857 35.986286 121.929143 60.708571 161.645714 73.947429 40.740571 13.677714 98.084571 25.892571 172.032 36.644571a36.571429 36.571429 0 0 1 31.305143 36.205714v371.565715a401.408 401.408 0 0 1-401.408 401.408H512a402.285714 402.285714 0 0 1-401.993143-386.121143L109.714286 570.733714v-370.102857a36.571429 36.571429 0 0 1 31.451428-36.278857c81.846857-11.483429 142.774857-23.844571 182.857143-37.156571 34.304-11.337143 79.067429-31.963429 134.436572-61.732572l21.211428-11.556571a73.142857 73.142857 0 0 1 69.632-0.731429zM512 256a182.857143 182.857143 0 0 0-36.205714 362.057143L475.428571 621.714286v219.428571a36.571429 36.571429 0 1 0 73.142858 0V731.428571h73.142857a36.571429 36.571429 0 0 0 0-73.142857h-73.142857v-38.4l-0.365715-1.755428A182.857143 182.857143 0 0 0 512 256z m0 73.142857a109.714286 109.714286 0 1 1 0 219.428572 109.714286 109.714286 0 0 1 0-219.428572z" fill="#1e2858"></path>
</svg>