<?xml version="1.0" standalone="no"?>
<!DOCTYPE svg PUBLIC "-//W3C//DTD SVG 1.1//EN" "http://www.w3.org/Graphics/SVG/1.1/DTD/svg11.dtd">
<svg viewBox="0 0 1024 1024" version="1.1" xmlns="http://www.w3.org/2000/svg" p-id="23407" xmlns:xlink="http://www.w3.org/1999/xlink" width="200" height="200">
    <path d="M511.946686 390.27682c-51.575684-0.61729-91.827281 39.187303-92.125283 91.103561s39.698164 91.805995 91.529279 91.720851 91.763423-40.209025 91.337705-91.869853-39.187303-90.337269-90.741701-90.954559z" fill="#1e2858"></path>
    <path d="M922.63643 182.143498L555.816882 8.237869a25.032193 25.032193 0 0 0-4.257176-1.724156 123.968957 123.968957 0 0 0-79.311184 0 25.245052 25.245052 0 0 0-4.257175 1.724156L101.256943 182.143498A39.378876 39.378876 0 0 0 78.736483 217.690915v271.05438c0 149.46944 65.581792 283.272474 186.145009 377.888204l201.470842 142.743102a78.630036 78.630036 0 0 0 91.188704 0.10643l203.067283-143.871254c119.051919-93.466293 184.654998-227.290613 184.654998-376.760053V217.797345a39.868451 39.868451 0 0 0-22.626889-35.653847zM757.415439 542.790141c-37.037429 6.279334-60.366752 29.310655-69.88154 65.113502a94.935019 94.935019 0 0 0 4.257176 61.729049c1.766728 4.257176-0.212859 13.133387-3.703743 16.262411-26.351918 23.563468-57.471872 39.059587-91.529278 50.617819-18.64643-28.523077-44.21077-45.55178-78.757751-46.296786-32.886683-0.702434-59.941034 11.047371-79.928475 38.037866-2.511734 3.384455-8.705924 7.769346-11.366659 6.790195-34.738554-12.899242-67.412378-29.566085-94.083584-55.492286 19.923582-53.108267 10.344937-94.700874-29.672514-122.585375-10.877084-7.577773-24.989622-11.068657-38.101723-14.708542-10.472652-2.916165-18.007853-5.853617-17.752423-18.625144 0.510861-28.033502 0.404432-56.08829 0-84.143079-0.149001-11.728519 6.109047-15.240689 16.390126-18.007853 14.580827-3.959173 29.80023-8.280207 42.571758-16.070838 35.228129-21.647739 50.468818-68.114812 26.224202-121.670083a295.596997 295.596997 0 0 1 87.719106-54.513135c9.003927-3.618599 11.494374 1.106866 15.815408 6.55605 27.288496 34.376694 66.454513 45.509209 108.557982 32.07782 19.157291-6.087761 32.311964-19.029576 44.700345-33.887119 2.42659-2.937451 9.1955-5.93876 11.685947-4.619036 28.012216 14.751114 55.683859 30.140804 83.2065 45.785925 8.407922 4.768037 9.216785 11.132515 4.917038 20.647302a88.974973 88.974973 0 0 0 65.262504 124.969394c14.006108 2.53302 22.563031 6.385764 22.328887 22.563031-0.36186 26.075201 0.319288 52.171689 0.936578 78.246891 0.212859 13.814535-6.321906 18.838003-19.795867 21.222021z" fill="#1e2858"></path>
</svg>