<?xml version="1.0" standalone="no"?><!DOCTYPE svg PUBLIC "-//W3C//DTD SVG 1.1//EN" "http://www.w3.org/Graphics/SVG/1.1/DTD/svg11.dtd">
<svg viewBox="0 0 1024 1024" version="1.1"
    xmlns="http://www.w3.org/2000/svg" p-id="18001"
    xmlns:xlink="http://www.w3.org/1999/xlink" width="200" height="200">
    <path d="M960 64v896H64V64h896z m-94.656 94.656h-305.28v704.384h305.28V158.72z m-446.08 540.032H207.808v93.952H419.2v-93.952z m0-164.352H207.808v93.888H419.2V534.4zM349.44 172.8H284.096v37.504l-10.112 3.52a114.496 114.496 0 0 0-27.712 16l-8.192 7.04-32.448-18.752-32.768 56.704 32.512 18.816-2.048 10.56a114.944 114.944 0 0 0 0 32l2.048 10.56-32.512 18.752 32.768 56.704 32.448-18.752 8.064 6.976c8.384 6.528 17.728 11.968 27.712 16l10.24 3.648v37.44h65.536V430.08l10.112-3.584c9.984-4.032 19.264-9.408 27.712-16l8.192-7.04 32.448 18.752 32.768-56.704-32.512-18.752 1.984-10.56a114.944 114.944 0 0 0 0-32l-1.92-10.56 32.448-18.816-32.768-56.704-32.448 18.752-8.192-7.04a114.496 114.496 0 0 0-27.712-16l-10.112-3.52V172.8zM316.8 271.04a49.152 49.152 0 1 1 0 98.24 49.152 49.152 0 0 1 0-98.24z" fill="#1e2f56"></path>
</svg>